<svg xmlns="http://www.w3.org/2000/svg" xmlns:xlink="http://www.w3.org/1999/xlink" width="500" zoomAndPan="magnify" viewBox="0 0 375 374.999991" height="500" preserveAspectRatio="xMidYMid meet" version="1.0"><defs><clipPath id="70e8601740"><path d="M 0 76 L 368 76 L 368 374.660156 L 0 374.660156 Z M 0 76 " clip-rule="nonzero"/></clipPath></defs><g clip-path="url(#70e8601740)"><path fill="#9d87ff" d="M 148.691406 80.820312 C 157.464844 76.949219 167.65625 75.410156 176.996094 78.03125 C 180.8125 79.339844 185.253906 81.449219 186.28125 85.777344 C 186.621094 88.679688 189.296875 90.445312 190.492188 93.007812 C 191.972656 95.96875 193.738281 98.875 194.9375 101.949219 C 195.222656 104.398438 194.820312 106.847656 194.59375 109.296875 C 196.019531 112.144531 199.09375 113.453125 200.972656 115.957031 C 201.65625 118.121094 198.75 119.148438 198.523438 121.027344 C 198.980469 123.476562 201.199219 125.8125 199.550781 128.316406 C 201.085938 130.082031 199.832031 132.304688 199.605469 134.355469 C 198.980469 136.972656 200.746094 139.648438 199.890625 142.328125 C 199.492188 143.808594 198.238281 144.71875 197.214844 145.742188 C 201.484375 145.402344 205.8125 145.628906 210.027344 146.027344 C 217.773438 146.65625 225.402344 143.011719 233.035156 145.175781 C 245.5625 148.875 255.246094 158.328125 267.261719 163.113281 C 269.253906 163.851562 271.53125 164.082031 273.355469 165.277344 C 274.210938 167.78125 272.785156 170.34375 271.988281 172.738281 C 277.910156 176.835938 284.003906 180.765625 289.8125 185.09375 C 294.824219 189.023438 300.746094 191.585938 305.53125 195.914062 C 315.554688 204.457031 322.273438 215.960938 330.304688 226.214844 C 331.84375 228.148438 333.894531 229.460938 335.773438 231.054688 C 337.820312 232.589844 337.765625 235.667969 339.929688 237.148438 C 344.542969 240.507812 349.953125 242.613281 354.394531 246.144531 C 357.980469 250.246094 361.910156 254.175781 364.246094 259.128906 C 365.386719 261.523438 367.152344 263.742188 367.71875 266.417969 C 367.492188 268.015625 365.214844 268.070312 364.246094 267.101562 C 361.113281 263.96875 359.464844 259.300781 355.304688 257.308594 C 358.382812 262.433594 359.917969 268.242188 361.683594 273.878906 C 362.195312 274.847656 361.910156 276.5 360.601562 276.554688 C 358.265625 277.070312 357.242188 274.449219 356.386719 272.855469 C 354.28125 268.183594 352.230469 263.402344 348.640625 259.640625 C 349.097656 262.832031 350.863281 265.679688 351.207031 268.925781 C 351.546875 271.773438 352.457031 274.507812 352.402344 277.355469 C 352.230469 279.0625 349.839844 279.117188 349.097656 277.808594 C 347.277344 275.417969 346.992188 272.226562 345.851562 269.496094 C 344.3125 265.964844 343.175781 262.148438 340.554688 259.242188 C 338.847656 257.421875 336.171875 257.308594 333.835938 257.308594 C 334.175781 261.007812 336.457031 264.769531 335.03125 268.46875 C 334.574219 270.007812 333.039062 270.40625 331.785156 270.804688 C 330.703125 267.332031 329.847656 263.855469 328.3125 260.609375 C 327.570312 258.902344 326.433594 257.421875 326.035156 255.597656 C 325.292969 251.042969 325.179688 246.316406 323.242188 242.046875 C 321.308594 238.34375 318.175781 235.4375 314.984375 232.707031 C 308.378906 227.464844 301.261719 222.851562 294.199219 218.183594 C 290.269531 215.5625 287.648438 211.578125 284.175781 208.445312 C 280.644531 205.085938 276.03125 203.261719 271.703125 201.15625 C 266.578125 198.820312 261.738281 195.800781 256.441406 193.808594 C 255.472656 194.152344 254.617188 194.832031 253.59375 194.949219 C 250.40625 193.75 247.386719 191.757812 243.914062 191.757812 C 241.234375 191.757812 239.355469 194.207031 238.957031 196.597656 C 238.160156 200.757812 238.957031 204.972656 238.902344 209.128906 C 239.015625 216.757812 236.792969 224.277344 237.535156 231.90625 C 238.160156 239.882812 237.648438 248.023438 235.425781 255.769531 C 234.457031 258.730469 234.289062 261.863281 234.175781 264.996094 C 233.945312 273.367188 232.351562 281.566406 231.894531 289.941406 C 231.726562 296.089844 229.390625 302.011719 229.617188 308.21875 C 229.449219 311.921875 230.871094 315.625 230.128906 319.324219 C 229.046875 321.832031 225.917969 321.601562 223.695312 322.285156 C 223.523438 325.363281 223.125 328.4375 223.070312 331.570312 C 223.410156 332.9375 224.320312 334.074219 224.605469 335.441406 C 224.550781 337.152344 223.636719 338.6875 223.125 340.339844 C 223.753906 341.535156 224.4375 342.730469 225.003906 343.984375 C 223.46875 347.628906 224.890625 351.558594 225.175781 355.316406 C 226.03125 360.898438 226.601562 366.535156 227.964844 372.0625 C 228.707031 374.90625 228.933594 377.871094 229.046875 380.832031 C 228.820312 381.230469 228.308594 382.082031 228.023438 382.480469 C 229.675781 403.324219 229.277344 424.339844 226.371094 445.011719 C 224.890625 454.410156 223.523438 463.976562 219.652344 472.746094 C 216.863281 478.554688 210.085938 480.492188 204.277344 481.800781 C 198.523438 483.28125 192.542969 483.226562 186.792969 484.535156 C 179.84375 486.359375 172.953125 488.464844 165.890625 490.117188 C 159.285156 491.824219 152.507812 493.019531 145.960938 494.957031 C 139.125 497.007812 132.746094 500.367188 126.710938 504.070312 C 127.050781 504.242188 127.792969 504.582031 128.191406 504.753906 C 129.101562 507.03125 129.671875 509.992188 127.792969 511.984375 C 125.855469 514.777344 121.699219 514.035156 119.421875 516.257812 C 116.859375 521.324219 114.695312 527.019531 115.207031 532.773438 C 115.378906 539.207031 115.378906 545.757812 113.898438 552.019531 C 112.757812 556.691406 106.550781 558.398438 102.847656 555.722656 C 99.832031 553.5 97.894531 550.199219 96.070312 547.066406 C 92.539062 540.632812 89.578125 533.625 89.238281 526.164062 C 88.953125 522.292969 90.09375 518.421875 89.351562 514.546875 C 88.78125 511.1875 86.789062 508.226562 84.625 505.605469 C 82.234375 502.757812 80.867188 499.171875 80.46875 495.46875 C 79.953125 490.402344 80.238281 484.992188 83.03125 480.550781 C 84.738281 477.929688 87.128906 475.195312 90.433594 474.910156 C 92.425781 474.625 94.078125 475.992188 95.503906 477.1875 C 97.722656 479.125 100.855469 479.238281 103.53125 480.09375 C 105.753906 480.890625 108.03125 480.207031 110.308594 480.265625 C 111.734375 480.492188 111.960938 482.257812 112.644531 483.28125 C 121.527344 479.695312 129.214844 473.886719 137.246094 468.816406 C 140.035156 466.996094 143 465.34375 145.164062 462.722656 C 148.578125 458.738281 152.621094 455.09375 157.40625 452.757812 C 164.011719 449.285156 171.53125 448.257812 178.820312 447.121094 C 177.792969 434.304688 171.984375 422.6875 168 410.671875 C 164.640625 400.476562 161.675781 390.113281 159.570312 379.578125 C 155.070312 382.425781 152.335938 387.09375 148.578125 390.796875 C 147.609375 390.398438 146.699219 390 145.789062 389.65625 C 135.421875 400.136719 124.945312 410.671875 113.554688 420.070312 C 106.207031 426.105469 98.066406 431.117188 90.09375 436.1875 C 85.195312 439.488281 79.953125 442.335938 74.261719 443.988281 C 70.730469 445.011719 67.140625 446.890625 63.269531 446.265625 C 56.09375 445.183594 49.375 442.109375 42.996094 438.691406 C 35.875 435.105469 28.074219 433.339844 20.558594 431.003906 C 13.835938 429.066406 7.171875 426.960938 0.625 424.566406 C -7.976562 421.550781 -16.402344 417.675781 -25.457031 416.140625 C -33.148438 414.714844 -40.949219 414.828125 -48.695312 414.429688 C -48.523438 416.195312 -47.953125 418.191406 -48.808594 419.953125 C -49.492188 420.921875 -50.6875 421.71875 -51.941406 421.4375 C -54.730469 420.582031 -57.179688 418.757812 -59.96875 417.90625 C -66.691406 419.214844 -73.695312 419.15625 -80.128906 421.605469 C -85.652344 423.316406 -89.699219 427.644531 -93.625 431.628906 C -96.074219 434.191406 -98.695312 437.097656 -102.453125 437.496094 C -106.726562 437.4375 -110.996094 434.476562 -111.621094 430.035156 C -112.023438 424.910156 -110.3125 419.898438 -108.605469 415.113281 C -105.1875 406.457031 -100.175781 397.914062 -92.144531 392.789062 C -87.988281 390.226562 -83.148438 388.292969 -80.015625 384.304688 C -77.851562 381.914062 -77.113281 378.609375 -74.777344 376.332031 C -70.105469 371.605469 -64.640625 367.050781 -57.804688 366.023438 C -54.84375 365.453125 -51.144531 366.308594 -49.832031 369.328125 C -48.351562 372.914062 -47.613281 376.902344 -45.105469 379.976562 C -43.625 381.855469 -40.890625 381.96875 -39.355469 383.734375 C -38.042969 385.214844 -38.839844 387.152344 -39.011719 388.859375 C -35.765625 389.488281 -32.464844 389.375 -29.160156 389.488281 C -16.6875 389.65625 -4.214844 389.203125 8.3125 389.773438 C 14.464844 390.171875 20.613281 388.292969 26.765625 389.601562 C 38.722656 391.820312 48.40625 399.738281 59.394531 404.523438 C 63.953125 400.308594 68.050781 395.523438 71.070312 390.113281 C 78.871094 375.707031 90.777344 364.144531 99.089844 350.078125 C 98.804688 348.9375 97.496094 347.6875 98.917969 346.773438 C 102.050781 344.042969 103.875 340.28125 105.925781 336.75 C 107.632812 333.621094 108.257812 330.03125 109.226562 326.613281 C 111.449219 317.730469 115.664062 309.417969 121.074219 302.070312 C 124.488281 297.457031 128.363281 293.128906 133.203125 289.996094 C 135.878906 288.289062 137.929688 285.839844 140.664062 284.1875 C 143.339844 282.25 142.371094 278.664062 142.144531 275.871094 C 141.800781 273.027344 143.566406 270.632812 145.277344 268.582031 C 144.878906 265.964844 144.136719 263.230469 145.164062 260.609375 C 143.796875 258.558594 143.28125 256.167969 143.566406 253.71875 C 142.542969 252.011719 141.0625 250.53125 140.550781 248.59375 C 137.988281 241.019531 134.398438 233.789062 129.160156 227.75 C 126.425781 224.789062 121.984375 223.992188 118.226562 225.246094 C 111.902344 227.179688 105.410156 228.71875 99.316406 231.453125 C 97.382812 231.453125 97.152344 228.777344 96.46875 227.351562 C 90.375 228.148438 84.167969 228.035156 78.019531 227.808594 C 71.015625 227.523438 64.292969 225.074219 57.800781 222.566406 C 55.296875 221.65625 53.871094 219.039062 53.871094 216.476562 C 53.703125 212.429688 51.765625 208.84375 50.457031 205.140625 C 44.019531 187.144531 47.835938 167.667969 46.128906 149.046875 C 45.101562 145.742188 42.539062 143.066406 42.3125 139.480469 C 33.597656 140.21875 24.769531 136.6875 18.960938 130.195312 C 8.882812 119.546875 9.054688 101.265625 19.019531 90.617188 C 28.246094 80.195312 45.386719 78.542969 56.492188 86.914062 C 63.15625 91.640625 67.199219 99.5 67.996094 107.53125 C 69.078125 108.554688 69.761719 109.867188 69.703125 111.402344 C 69.703125 114.59375 71.527344 117.78125 70.332031 120.96875 C 68.792969 125.355469 67.710938 129.96875 65.375 134.070312 C 64.007812 136.746094 62.1875 139.308594 61.558594 142.328125 C 61.21875 146.371094 62.757812 150.300781 63.722656 154.171875 C 66.34375 163.339844 67.652344 172.964844 71.867188 181.566406 C 74.660156 187.257812 77.5625 192.953125 79.273438 199.046875 C 84.851562 196.085938 90.546875 193.296875 96.414062 190.960938 C 101.710938 188.855469 107.175781 186.804688 111.789062 183.332031 C 117.257812 179.171875 122.722656 174.789062 129.214844 172.28125 C 134.855469 170.003906 141.289062 169.378906 146.300781 165.734375 C 148.464844 164.367188 148.292969 161.519531 149.546875 159.523438 C 150.914062 157.988281 153.019531 157.359375 154.785156 156.335938 C 154.957031 151.152344 153.648438 145.914062 150.742188 141.585938 C 144.082031 140.675781 139.238281 135.320312 136.050781 129.796875 C 133.316406 124.84375 130.695312 119.433594 131.039062 113.679688 C 131.09375 111.0625 132.175781 108.613281 133.144531 106.21875 C 132.007812 106.105469 130.582031 105.59375 129.84375 106.789062 C 127.167969 110.148438 127.167969 114.875 127.449219 118.976562 C 127.734375 123.703125 131.265625 127.292969 132.460938 131.734375 C 133.542969 135.664062 133.773438 139.878906 133.429688 143.921875 C 133.144531 147.28125 131.378906 150.242188 129.671875 153.148438 C 129.332031 149.902344 129.445312 146.597656 128.363281 143.464844 C 127.679688 146.539062 128.132812 149.84375 126.539062 152.691406 C 125.003906 155.140625 122.839844 157.304688 120.21875 158.613281 C 121.414062 156.792969 123.066406 155.253906 124.035156 153.261719 C 125.34375 150.699219 125.628906 147.738281 125.570312 144.890625 C 123.863281 147.167969 122.4375 149.617188 120.789062 151.949219 C 118.226562 155.480469 117.484375 159.925781 116.972656 164.195312 C 116.230469 159.296875 117.710938 154.230469 120.332031 150.128906 C 122.496094 146.769531 125.171875 142.726562 123.519531 138.625 C 122.609375 140.847656 121.984375 143.292969 120.503906 145.289062 C 117.371094 149.445312 111.847656 151.210938 109.625 156.222656 C 110.253906 150.183594 117.085938 147.222656 117.597656 141.128906 C 114.296875 144.375 110.933594 147.507812 107.574219 150.640625 C 104.613281 153.546875 100.796875 155.367188 96.984375 156.847656 C 100.683594 154.230469 104.898438 152.234375 107.519531 148.421875 C 105.242188 149.84375 103.019531 151.4375 100.171875 151.496094 C 103.589844 148.820312 108.03125 146.199219 108.488281 141.414062 C 105.753906 144.035156 103.246094 147.054688 99.773438 148.703125 C 95.617188 150.699219 90.890625 151.550781 87.1875 154.398438 C 90.71875 149.273438 98.464844 149.386719 101.253906 143.578125 C 98.804688 145.289062 96.355469 147.054688 93.339844 147.679688 C 89.410156 148.988281 85.195312 148.421875 81.152344 149.101562 C 77.621094 149.902344 75.171875 152.691406 72.722656 155.082031 C 74.316406 150.355469 78.703125 147.453125 82.746094 145.003906 C 79.273438 145.742188 76.082031 147.394531 73.179688 149.503906 C 75.511719 146.140625 78.988281 143.636719 82.800781 142.210938 C 79.386719 143.351562 75.683594 144.207031 72.097656 143.292969 C 76.652344 142.894531 80.867188 141.300781 84.910156 139.25 C 82.117188 139.308594 79.214844 139.136719 76.878906 137.429688 C 82.800781 138.851562 87.929688 135.035156 92.539062 131.960938 C 93.339844 131.449219 93.90625 130.652344 94.421875 129.910156 C 92.65625 129.796875 90.660156 129.625 89.011719 130.539062 C 86.390625 132.019531 84.511719 134.582031 81.71875 135.71875 C 83.429688 133.726562 85.023438 131.621094 86.449219 129.398438 C 81.09375 129.457031 75.742188 130.59375 71.242188 133.613281 C 74.203125 129.910156 78.757812 128.261719 83.144531 127.007812 C 86.277344 126.152344 89.292969 124.785156 92.425781 123.875 C 88.839844 123.53125 85.367188 121.996094 82.859375 119.375 C 85.59375 120.515625 88.210938 122.167969 91.289062 122.167969 C 94.761719 122.507812 98.75 120.855469 99.773438 117.269531 C 97.269531 118.523438 94.933594 120.171875 92.085938 120.628906 C 94.648438 118.921875 96.984375 116.925781 99.375 115.046875 C 96.242188 115.902344 92.941406 115.105469 89.921875 114.023438 C 93.90625 114.476562 97.835938 113.851562 101.367188 112.03125 C 97.609375 112.429688 93.621094 112.03125 90.492188 109.75 C 94.191406 110.71875 98.351562 111.003906 101.824219 108.898438 C 105.695312 107.074219 107.40625 102.917969 110.082031 99.84375 C 108.886719 100.867188 106.492188 102.917969 105.355469 103.941406 C 108.828125 98.132812 115.546875 95.230469 122.039062 94.433594 C 124.945312 94.035156 127.847656 94.773438 130.753906 95.058594 C 131.664062 95.117188 132.175781 94.089844 132.917969 93.632812 C 133.886719 93.917969 134.855469 94.203125 135.878906 94.488281 C 137.816406 88.28125 142.769531 83.441406 148.691406 80.820312 Z M 129.101562 137.199219 C 129.445312 141.929688 130.8125 146.597656 130.414062 151.4375 C 132.632812 146.9375 132.746094 141.015625 129.101562 137.199219 Z M 129.101562 137.199219 " fill-opacity="1" fill-rule="evenodd"/></g></svg>