<svg xmlns="http://www.w3.org/2000/svg" xmlns:xlink="http://www.w3.org/1999/xlink" width="500" zoomAndPan="magnify" viewBox="0 0 375 374.999991" height="500" preserveAspectRatio="xMidYMid meet" version="1.0"><path fill="#d16eff" d="M 349.804688 110.402344 C 344.441406 105.835938 342.847656 116.433594 339.441406 117.875 C 339.882812 115.4375 341.265625 111.222656 337.050781 112.558594 C 328.6875 121.226562 324.226562 140.324219 310.464844 141.4375 C 312.070312 136.882812 312.035156 128.496094 305.945312 128.308594 C 302.910156 129.046875 304.011719 132.539062 303.859375 134.832031 C 303.648438 141.179688 301.0625 147.128906 300.980469 153.5 C 301.109375 153.523438 301.226562 153.511719 301.332031 153.464844 C 301.332031 153.476562 301.332031 153.488281 301.332031 153.5 C 301.214844 153.5 301.097656 153.5 300.980469 153.5 C 299.785156 157.308594 304.09375 158.792969 304.234375 162.238281 C 303.660156 176.09375 304.035156 189.675781 302.816406 203.613281 C 300.886719 202.863281 299.9375 200.710938 298.050781 200.746094 C 294.410156 186.363281 287.582031 172.4375 281.726562 159.179688 C 276.925781 152.75 268.09375 151.488281 261.933594 147.222656 C 260.925781 146.390625 259.648438 145.09375 258.304688 145.175781 C 256.382812 142.914062 251.980469 143.242188 249.882812 140.324219 C 246.675781 138.910156 243.710938 137.070312 240.761719 135.078125 C 240.769531 135.03125 240.78125 134.972656 240.792969 134.925781 C 234.703125 129.972656 231.308594 129.199219 231.308594 129.878906 C 231.308594 129.878906 231.226562 129.890625 231.226562 129.890625 C 229.128906 126.296875 227.28125 122.417969 226.707031 118.226562 C 228.566406 118.507812 229.527344 117.253906 230.347656 115.859375 C 236.179688 105.109375 247.890625 97.214844 248.734375 84.34375 C 252.179688 71.675781 248.96875 53.519531 237.09375 46.953125 C 237.773438 44.621094 235.042969 40.324219 232.726562 42.617188 C 230.265625 38.15625 226.179688 34.992188 225.089844 30.285156 C 224.644531 30.25 224.421875 29.921875 224.1875 29.617188 C 221.625 27.253906 221.378906 32.546875 220.007812 33.730469 C 219.925781 33.554688 219.796875 33.402344 219.609375 33.296875 C 221.320312 30.34375 215.265625 28.273438 213.671875 30.824219 C 213.109375 31.515625 212.511719 31.445312 211.890625 31.269531 C 212.054688 27.769531 208.800781 27.851562 206.832031 26.199219 C 203.949219 25.964844 203.050781 29.324219 200.636719 29.5 C 198.726562 26.984375 187.613281 26.292969 188.175781 30.800781 L 188.09375 30.777344 C 187.753906 31.433594 188.363281 32.628906 187.144531 32.769531 C 183.890625 35.332031 181.664062 44.316406 183.058594 48.460938 C 180.175781 51.695312 175.960938 54.515625 174.53125 59.027344 C 171.96875 61.566406 162.222656 62.820312 165.738281 68.089844 C 169.707031 73.03125 167.878906 73.429688 167.550781 78.980469 C 166.695312 84.019531 169.964844 90.878906 166.417969 95.085938 C 162.011719 97.484375 165.84375 101.703125 164.15625 105.027344 C 160.675781 111.222656 167.1875 114.714844 172.832031 115.472656 C 178.925781 116.28125 181.511719 119.515625 178.234375 125.371094 C 161.519531 123.8125 162.445312 137.890625 155.417969 132.785156 C 146.238281 130.054688 136.28125 134.199219 127.5 131.917969 C 126.609375 131.824219 125.835938 132.070312 125.636719 132.726562 C 124.277344 136.214844 120.003906 136.484375 116.984375 137.902344 C 114.945312 137.867188 113.84375 139.378906 112.355469 140.511719 C 110.167969 141.695312 107.613281 141.179688 105.820312 143.042969 C 100.996094 146.179688 95.609375 145.339844 90.257812 146.390625 C 83.898438 145.585938 76.871094 151.347656 70.816406 149.789062 C 74.433594 132.738281 88.546875 104.289062 105.1875 97.988281 C 108.609375 98.210938 111.300781 95.71875 114.710938 95.753906 C 120.261719 95.859375 122.96875 91.652344 125.003906 87.097656 C 127.347656 87.226562 130.542969 89.265625 132.511719 87.414062 C 133.144531 88.292969 134.117188 88.210938 135.042969 88.246094 C 135.253906 90.738281 142.558594 93.011719 145.289062 93.257812 C 155.617188 94.195312 159.378906 77.554688 148.507812 73.792969 C 145.3125 72.691406 141.589844 72.328125 138.425781 74.355469 C 135.835938 75.316406 138.613281 76.511719 134.1875 76.453125 C 133.777344 73.828125 129.457031 74.753906 127.242188 74.273438 C 123.039062 74.085938 123.632812 68.828125 122.171875 66.039062 C 120.378906 62.914062 115.917969 65.199219 115.226562 68.054688 C 112.917969 64.285156 111.816406 62.820312 107.027344 64.800781 C 106.769531 63.523438 106.183594 62.539062 104.78125 62.292969 C 103.574219 61.53125 102.507812 61.789062 101.535156 62.738281 C 101.113281 63.019531 100.703125 63.3125 100.28125 63.59375 C 98.691406 63.019531 97.097656 62.410156 95.339844 62.820312 C 95.339844 62.820312 95.351562 62.820312 95.351562 62.820312 C 91.488281 63.734375 88.429688 66.261719 85.398438 68.59375 C 82.609375 69.285156 71.800781 65.78125 71.730469 68.113281 C 71.578125 68.21875 71.414062 68.335938 71.261719 68.441406 C 70.207031 67.738281 69.902344 70.445312 69.890625 71.230469 C 69.632812 72.902344 68.695312 75.058594 70.101562 76.558594 C 70.757812 79.296875 75.558594 78.019531 77.820312 78.96875 C 78.675781 79.214844 79.53125 79.472656 80.394531 79.71875 C 81.449219 93.960938 68.355469 103.84375 60.675781 114.398438 C 46.128906 132.292969 31.089844 150.421875 23.550781 172.589844 C 20.773438 183.644531 38.621094 190.226562 46.855469 192.734375 C 58.578125 192.347656 70.125 191.210938 81.859375 192.265625 C 85.339844 191.714844 91.101562 193.4375 91.042969 193.355469 C 100.46875 193.285156 113.5625 192.113281 117.320312 202.570312 C 126.5625 226.859375 130.367188 252.789062 129.980469 278.871094 C 127.160156 298.148438 128.894531 317.777344 125.332031 336.867188 C 123.121094 344.289062 121.621094 353.472656 132.582031 352.523438 C 133.179688 355.988281 131.257812 359.585938 132.59375 362.910156 C 132.347656 367.035156 133.355469 370.957031 134.269531 374.9375 C 178.773438 374.9375 223.273438 374.9375 267.777344 374.9375 C 266.113281 367.375 266.371094 359.714844 264.546875 352.101562 C 264.476562 346.011719 259.976562 340.730469 264.792969 335.917969 C 268.808594 327.976562 261.511719 319.496094 263.65625 311.078125 C 263.421875 293.78125 250 281.636719 246.546875 265.34375 C 247.726562 255.496094 254.660156 247.554688 256.089844 237.671875 C 261.78125 229.027344 256.851562 205.757812 263.996094 222.445312 C 267.0625 230.667969 273.339844 236.066406 277.722656 243.515625 C 286.949219 253.152344 292.699219 272.3125 308.417969 272.078125 C 309.105469 272.03125 310.605469 271.257812 310.910156 272.101562 C 320.621094 274.011719 324.976562 264.605469 325.820312 256.351562 C 331.40625 235.597656 325.304688 210.78125 323.324219 190.449219 C 323.324219 185.050781 323.324219 179.640625 323.324219 174.242188 C 321.695312 166.980469 326.136719 163.84375 330.363281 158.910156 C 334.519531 153.054688 339.277344 147.316406 343.410156 141.660156 C 346.921875 139.742188 354.171875 110.988281 349.804688 110.402344 Z M 349.804688 110.402344 " fill-opacity="1" fill-rule="nonzero"/></svg>