<svg xmlns="http://www.w3.org/2000/svg" xmlns:xlink="http://www.w3.org/1999/xlink" width="500" zoomAndPan="magnify" viewBox="0 0 375 374.999991" height="500" preserveAspectRatio="xMidYMid meet" version="1.0"><defs><clipPath id="d6167487fd"><path d="M 47.566406 26 L 307.066406 26 L 307.066406 375 L 47.566406 375 Z M 47.566406 26 " clip-rule="nonzero"/></clipPath></defs><g clip-path="url(#d6167487fd)"><path fill="#0b72b9" d="M 119.699219 155.335938 C 118.808594 154.441406 117.554688 153.191406 115.769531 151.582031 C 114.519531 150.332031 114.160156 148.546875 115.949219 147.652344 C 118.09375 146.402344 121.308594 148.722656 123.097656 150.152344 C 128.277344 154.441406 132.210938 157.660156 135.070312 159.984375 C 140.25 163.914062 145.792969 167.847656 151.867188 169.992188 C 152.941406 170.347656 154.011719 170.527344 155.261719 170.527344 C 155.441406 170.527344 155.621094 170.347656 155.621094 170.167969 C 155.800781 167.847656 155.800781 165.878906 155.621094 164.09375 C 154.90625 159.269531 154.546875 155.515625 155.085938 151.226562 C 155.441406 149.261719 156.335938 148.007812 157.765625 147.292969 C 159.375 146.402344 161.339844 146.757812 161.519531 148.902344 C 161.875 152.121094 162.054688 154.621094 162.234375 156.050781 C 162.769531 160.699219 163.839844 164.808594 165.808594 169.277344 C 166.878906 171.957031 167.773438 173.742188 168.308594 176.066406 C 169.203125 179.996094 169.738281 182.5 169.917969 183.394531 C 170.09375 186.253906 169.917969 190.363281 170.988281 193.222656 C 172.0625 195.902344 173.492188 198.226562 175.277344 200.191406 C 179.566406 204.480469 184.214844 208.410156 189.21875 211.984375 C 189.753906 212.34375 190.648438 213.058594 191.003906 213.414062 C 191.183594 213.414062 191.183594 213.414062 191.183594 213.414062 C 191.003906 212.878906 191.003906 212.699219 191.003906 212.699219 C 189.933594 210.734375 188.859375 208.769531 188.144531 206.804688 C 184.929688 199.65625 185.105469 192.6875 188.324219 185.539062 C 190.289062 181.425781 193.328125 177.496094 195.652344 173.921875 C 196.007812 173.386719 196.367188 172.851562 196.367188 172.136719 C 196.722656 166.417969 197.082031 162.304688 197.4375 159.445312 C 197.972656 152.835938 199.9375 144.792969 207.085938 142.292969 C 208.695312 141.753906 211.019531 141.578125 212.984375 141.21875 C 217.808594 139.96875 225.136719 138.71875 230.855469 136.214844 C 232.464844 135.5 233.355469 134.25 233.714844 132.640625 C 234.609375 128.710938 234.609375 124.421875 233.714844 120.308594 C 233.535156 120.132812 233.535156 120.132812 233.355469 120.132812 C 233.179688 120.132812 233.179688 120.132812 233.179688 120.132812 C 230.675781 121.203125 228.355469 122.097656 226.210938 122.992188 C 221.5625 124.777344 212.804688 126.742188 213.164062 118.523438 C 213.164062 117.273438 213.164062 116.378906 212.984375 115.84375 C 212.628906 114.414062 210.484375 114.414062 209.769531 113.164062 C 209.054688 112.089844 209.230469 111.019531 210.304688 109.765625 C 210.304688 109.765625 210.304688 109.589844 210.304688 109.589844 C 210.304688 109.410156 210.304688 109.410156 210.125 109.410156 C 210.125 109.410156 209.769531 109.410156 209.230469 109.230469 C 207.445312 109.050781 206.550781 108.160156 206.195312 106.730469 C 206.195312 105.835938 206.550781 104.761719 206.730469 103.871094 C 206.910156 103.15625 206.550781 102.796875 205.835938 102.796875 C 203.335938 102.796875 200.476562 102.976562 199.582031 100.652344 C 199.402344 99.9375 199.582031 98.6875 200.296875 96.898438 C 201.546875 92.609375 202.796875 89.035156 202.976562 84.925781 C 202.976562 84.570312 202.796875 84.390625 202.621094 84.390625 L 199.402344 84.210938 C 199.222656 84.210938 199.046875 84.03125 198.867188 83.675781 C 198.867188 83.496094 199.046875 83.320312 199.222656 83.320312 L 202.082031 83.320312 C 202.261719 83.320312 202.261719 83.140625 202.261719 82.960938 C 202.082031 82.066406 201.90625 81.53125 201.546875 81.175781 C 199.761719 78.492188 198.511719 75.097656 198.152344 71.34375 C 197.796875 66.519531 197.972656 62.050781 198.867188 57.585938 C 198.867188 57.585938 198.867188 57.40625 198.867188 57.40625 C 198.867188 57.40625 198.6875 57.226562 198.6875 57.226562 C 198.6875 57.226562 198.6875 57.226562 198.511719 57.40625 C 195.652344 58.835938 194.578125 62.945312 194.578125 65.984375 C 194.757812 70.273438 195.652344 74.203125 197.257812 77.777344 C 197.796875 78.851562 198.152344 79.921875 198.6875 80.816406 C 198.6875 80.816406 198.6875 80.816406 198.6875 80.996094 C 198.511719 80.996094 198.511719 80.996094 198.511719 80.996094 C 191.183594 74.5625 186.714844 67.59375 188.324219 57.40625 C 188.679688 54.902344 189.753906 52.402344 191.183594 50.257812 C 193.863281 45.96875 198.332031 44.898438 202.976562 44.898438 C 203.15625 44.898438 203.335938 44.71875 203.511719 44.539062 C 206.910156 39.535156 210.839844 36.140625 216.203125 32.386719 C 218.882812 30.777344 221.382812 29.527344 224.066406 28.632812 C 227.640625 27.382812 230.855469 26.667969 233.714844 26.488281 C 241.042969 25.773438 248.191406 26.847656 255.160156 29.527344 C 258.910156 30.957031 262.484375 33.28125 265.703125 36.320312 C 265.882812 36.320312 265.882812 36.320312 265.882812 36.140625 C 268.027344 33.101562 273.03125 31.492188 276.605469 32.746094 C 278.035156 33.101562 278.925781 33.996094 280.355469 34.53125 C 285.183594 36.320312 288.398438 39.535156 290.183594 44.359375 C 291.972656 49.007812 291.078125 54.726562 287.683594 58.476562 C 287.503906 58.65625 287.503906 58.65625 287.503906 58.835938 C 287.503906 58.835938 287.503906 59.015625 287.683594 59.015625 C 290.183594 62.410156 288.933594 66.878906 285.183594 68.484375 C 283.394531 69.378906 281.429688 69.914062 279.464844 70.09375 C 279.285156 70.09375 279.105469 70.273438 279.105469 70.628906 C 280 77.777344 278.570312 84.390625 274.460938 90.289062 C 271.421875 94.933594 266.953125 97.972656 262.128906 100.832031 C 261.949219 101.011719 261.949219 101.011719 261.949219 101.1875 C 261.949219 101.726562 261.949219 102.441406 262.128906 103.15625 C 262.664062 106.730469 263.738281 110.304688 265.167969 113.875 C 266.953125 118.703125 269.097656 123.527344 272.316406 127.28125 C 274.28125 129.425781 276.605469 131.210938 279.285156 132.820312 C 283.929688 135.320312 288.753906 137.824219 294.117188 140.324219 C 300.550781 143.542969 305.195312 148.367188 306.625 155.515625 C 307.164062 158.554688 307.164062 161.949219 306.449219 166.058594 C 305.910156 169.8125 305.019531 173.207031 304.125 176.421875 C 301.445312 185.359375 297.871094 194.832031 293.402344 204.835938 C 290.183594 211.984375 287.328125 218.0625 284.644531 222.886719 C 278.570312 234.503906 273.566406 243.617188 269.457031 250.40625 C 269.097656 251.300781 268.5625 252.015625 268.203125 252.375 C 268.027344 252.730469 267.847656 252.910156 267.847656 253.089844 C 266.597656 256.484375 266.058594 260.238281 265.703125 263.632812 C 265.34375 266.492188 265.703125 270.066406 266.773438 274.175781 C 269.457031 284.183594 274.816406 292.761719 279.464844 301.875 C 290.542969 323.140625 294.832031 346.015625 292.152344 370.320312 C 291.613281 375.324219 291.078125 380.148438 290.183594 384.4375 C 290.183594 384.613281 290.007812 384.613281 289.828125 384.613281 L 172.417969 384.613281 C 172.0625 384.613281 171.882812 384.4375 171.882812 384.257812 C 171.347656 378.898438 170.988281 374.785156 170.632812 371.75 C 169.203125 354.414062 169.558594 336.902344 171.703125 319.210938 C 172.238281 314.742188 173.132812 310.09375 174.027344 305.269531 C 175.457031 298.480469 177.78125 291.6875 180.640625 284.71875 C 181.53125 282.574219 182.605469 280.25 183.675781 277.570312 C 183.675781 277.390625 183.675781 277.214844 183.5 277.214844 C 177.78125 277.035156 171.523438 276.5 164.378906 275.605469 C 159.195312 275.070312 149.542969 273.816406 135.25 271.851562 C 135.070312 271.851562 134.355469 271.671875 133.28125 271.496094 C 132.566406 271.496094 132.03125 271.496094 131.496094 271.496094 C 127.027344 271.496094 122.738281 271.136719 118.09375 270.78125 C 114.519531 270.421875 109.515625 269.707031 109.335938 265.0625 C 109.335938 264.882812 109.15625 264.703125 108.980469 264.523438 C 107.90625 264.347656 107.011719 264.167969 106.476562 263.988281 C 103.976562 263.273438 102.367188 261.84375 102.367188 259.164062 C 102.367188 258.628906 102.367188 258.269531 102.367188 258.269531 C 102.1875 258.09375 102.1875 257.914062 102.007812 257.914062 C 97.898438 254.875 93.429688 251.300781 90.035156 247.011719 C 88.785156 245.582031 87.710938 244.152344 86.996094 242.542969 C 86.640625 241.652344 86.28125 241.113281 86.28125 240.9375 C 86.105469 240.757812 86.105469 240.757812 85.925781 240.578125 C 78.0625 234.859375 67.339844 227.175781 54.292969 217.703125 C 53.578125 217.167969 53.222656 216.632812 53.042969 215.917969 C 52.6875 210.378906 52.148438 205.195312 51.433594 200.191406 C 50.71875 195.902344 49.46875 191.792969 47.683594 187.683594 C 47.683594 187.683594 47.683594 187.683594 47.683594 187.503906 C 47.683594 187.503906 47.863281 187.324219 48.039062 187.324219 C 48.753906 187.503906 49.46875 187.683594 50.003906 188.039062 C 51.613281 189.113281 52.863281 190.003906 54.117188 190.71875 C 54.117188 190.71875 54.117188 190.898438 54.117188 190.898438 C 54.117188 190.898438 54.292969 190.71875 54.292969 190.71875 L 53.042969 184.644531 C 53.222656 184.644531 53.222656 184.644531 53.222656 184.644531 L 54.472656 185.539062 C 54.652344 185.539062 54.652344 185.539062 54.652344 185.359375 C 54.832031 185.179688 54.832031 185 54.832031 184.644531 C 54.832031 184.464844 55.007812 184.285156 55.1875 184.285156 C 55.367188 184.285156 55.722656 184.644531 56.617188 185.179688 C 62.515625 189.46875 67.875 193.757812 72.703125 198.046875 C 72.703125 198.046875 72.878906 198.046875 72.878906 198.046875 C 73.058594 198.046875 73.058594 198.046875 73.058594 198.046875 C 76.8125 194.472656 81.277344 191.792969 86.28125 190.003906 C 86.28125 190.003906 86.28125 190.003906 86.460938 190.003906 C 86.640625 190.003906 86.820312 190.183594 86.820312 190.363281 L 87.175781 191.257812 C 87.175781 191.433594 87.355469 191.433594 87.535156 191.433594 C 87.890625 191.433594 88.25 191.257812 88.425781 191.433594 C 88.605469 191.433594 88.605469 191.433594 88.605469 191.613281 L 88.605469 192.863281 C 88.605469 193.042969 88.785156 193.222656 88.964844 193.222656 L 94.859375 191.078125 C 95.21875 190.898438 95.753906 191.078125 96.113281 191.257812 L 160.265625 238.96875 C 160.445312 239.148438 160.625 239.328125 160.445312 239.507812 C 160.445312 239.507812 160.445312 239.683594 160.265625 239.683594 C 159.730469 240.042969 158.121094 240.757812 155.441406 242.007812 C 153.832031 242.722656 152.226562 243.4375 150.796875 244.152344 C 146.328125 246.296875 141.859375 248.621094 137.035156 250.945312 C 135.785156 251.480469 134.535156 252.195312 133.28125 253.089844 C 133.28125 253.089844 133.105469 253.265625 133.105469 253.265625 C 133.105469 253.445312 133.28125 253.445312 133.28125 253.445312 C 135.070312 254.519531 136.855469 255.234375 139 255.234375 C 145.433594 255.589844 152.046875 254.695312 158.121094 253.804688 C 168.667969 252.375 179.210938 250.585938 189.933594 248.441406 C 191.363281 248.261719 192.078125 248.085938 192.253906 248.085938 C 192.433594 248.085938 192.613281 247.90625 192.613281 247.726562 L 193.507812 245.226562 C 193.683594 245.046875 193.507812 244.867188 193.507812 244.6875 C 184.570312 236.289062 177.957031 229.855469 173.847656 225.566406 C 164.554688 215.738281 156.871094 208.054688 150.972656 202.335938 C 143.46875 195.1875 138.109375 189.828125 134.535156 186.253906 C 132.03125 183.570312 129.886719 181.425781 128.101562 179.460938 C 124.882812 175.53125 120.414062 170.707031 114.875 164.628906 C 114.339844 163.914062 113.980469 162.484375 115.054688 161.949219 C 116.484375 161.234375 118.09375 161.949219 119.164062 162.84375 C 119.34375 162.84375 119.34375 162.84375 119.34375 162.664062 C 119.523438 162.664062 119.523438 162.664062 119.523438 162.664062 C 119.523438 162.664062 119.523438 162.664062 119.34375 162.664062 C 117.199219 160.699219 115.054688 158.554688 112.910156 156.410156 C 112.550781 155.871094 112.375 155.335938 112.375 154.621094 C 112.375 153.550781 113.089844 152.835938 114.160156 152.65625 C 116.304688 152.296875 118.09375 154.621094 119.523438 155.335938 C 119.699219 155.335938 119.699219 155.335938 119.699219 155.335938 Z M 119.699219 155.335938 " fill-opacity="1" fill-rule="evenodd"/></g></svg>